<svg xmlns="http://www.w3.org/2000/svg" viewBox="0 0 229.84 107.44"><defs><style>.cls-1{fill:#6a8da5;}.cls-2{fill:#b57e59;}.cls-3{fill:#fff;}.cls-4{fill:#e2eaed;}.cls-5{fill:#cff3ff;}</style></defs><g id="Layer_2" data-name="Layer 2"><g id="Layer_1-2" data-name="Layer 1"><path class="cls-1" d="M0,61.89a.64.64,0,0,1,.66-.66H8.75a8.55,8.55,0,0,1,8.54,8.49,8.43,8.43,0,0,1-4.4,7.43,9.82,9.82,0,0,1-1.82,19.47H.66A.64.64,0,0,1,0,96Zm8.75,15A7.22,7.22,0,0,0,16,69.72a7.37,7.37,0,0,0-7.23-7.23H1.26V76.9Zm2.32,18.46a8.55,8.55,0,0,0,0-17.09H1.26V95.36Z"/><path class="cls-1" d="M50.16,72.5V96a.6.6,0,0,1-.61.66.61.61,0,0,1-.66-.66V89.79a11.61,11.61,0,0,1-10.41,6.83C32,96.62,26.8,91,26.8,84.23S32,71.85,38.48,71.85a11.7,11.7,0,0,1,10.41,6.82V72.5a.64.64,0,1,1,1.27,0ZM48.89,84.23c0-6.11-4.7-11.07-10.41-11.07s-10.42,5-10.42,11.07,4.7,11.13,10.42,11.13S48.89,90.4,48.89,84.23Z"/><path class="cls-1" d="M60.77,61.89a.64.64,0,0,1,.66-.66.67.67,0,0,1,.61.66V88.13L78.32,71.85a.63.63,0,0,1,.91,0,.65.65,0,0,1,0,.91L69,83,79.23,95.51a.71.71,0,0,1-.1,1,.59.59,0,0,1-.36.15.51.51,0,0,1-.5-.25L68,84l-5.81,5.81s-.1.11-.15.11V96a.67.67,0,0,1-.61.66.64.64,0,0,1-.66-.66Z"/><path class="cls-1" d="M86.05,84.23a12.27,12.27,0,0,1,12-12.38A12,12,0,0,1,110,83.27v.2a.7.7,0,0,1-.61.61h-22v.15A11,11,0,0,0,98.09,95.36,10.47,10.47,0,0,0,107,90.3a.69.69,0,0,1,.91-.15.62.62,0,0,1,.16.86,12.05,12.05,0,0,1-10,5.61A12.4,12.4,0,0,1,86.05,84.23Zm1.32-1.36H108.7a10.71,10.71,0,0,0-21.33,0Z"/><path class="cls-1" d="M117.3,93a.63.63,0,0,1,0-.91.65.65,0,0,1,.91-.05,14,14,0,0,0,8.44,3.29c4.5,0,8.19-2.63,8.19-5.87,0-3.79-3.69-4.6-7.58-5.51s-8.45-2-8.45-6.62c0-3.34,3.54-6,7.84-6a10.25,10.25,0,0,1,7.64,3,.64.64,0,0,1-.06.91.61.61,0,0,1-.9,0,9.29,9.29,0,0,0-6.68-2.58c-3.59,0-6.52,2.08-6.52,4.71,0,3.59,3.44,4.4,7.43,5.36s8.6,2,8.6,6.77c0,4-4.2,7.13-9.51,7.13A15.1,15.1,0,0,1,117.3,93Z"/><path class="cls-1" d="M162.3,81.91a8.78,8.78,0,0,0-17.55-.36V96a.65.65,0,0,1-.25.56.84.84,0,0,1-.25.1h-.11a.81.81,0,0,1-.45-.15.62.62,0,0,1-.2-.41V61.89a.66.66,0,0,1,.65-.66.62.62,0,0,1,.61.66V77.05a10,10,0,0,1,18.81,4.86V96a.66.66,0,0,1-.61.66.63.63,0,0,1-.65-.66Z"/><path class="cls-1" d="M185,71.85c6.47,0,11.73,5.56,11.73,12.38S191.47,96.62,185,96.62,173.32,91,173.32,84.23,178.52,71.85,185,71.85Zm0,23.51c5.71,0,10.46-5,10.46-11.13S190.71,73.11,185,73.11s-10.42,5-10.42,11.12S179.28,95.36,185,95.36Z"/><path class="cls-1" d="M206.08,84.59V72.5a.61.61,0,0,1,.66-.65.59.59,0,0,1,.6.65v6.12a11.74,11.74,0,0,1,10.57-6.77,12.26,12.26,0,0,1,0,24.52,11.86,11.86,0,0,1-10.57-6.73v17.14a.6.6,0,0,1-.6.66.61.61,0,0,1-.66-.66Zm1.26-.51a10.75,10.75,0,1,0,0-.45Z"/><path class="cls-1" d="M.05,1.58A1.61,1.61,0,0,1,1.64,0H11.93A11.47,11.47,0,0,1,19,20.52,13.17,13.17,0,0,1,14.84,46.2H1.57A1.55,1.55,0,0,1,.05,44.61ZM11.93,19.73a8.25,8.25,0,1,0,0-16.5H3.29v16.5ZM14.84,43a10,10,0,0,0,0-19.93H3.29V43Z"/><path class="cls-1" d="M100.5,27.06a10,10,0,0,0-10-10,10.14,10.14,0,0,0-10,10V44.88a1.49,1.49,0,0,1-.33.72,1.42,1.42,0,0,1-1.19.6h-.4a1.78,1.78,0,0,1-1-.86.24.24,0,0,1-.07-.2.21.21,0,0,0-.06-.13V15.51a1.55,1.55,0,1,1,3.1,0v3.1a13.11,13.11,0,0,1,23.16,8.45V44.61a1.59,1.59,0,1,1-3.17,0Z"/><path class="cls-2" d="M67.82,28,68.9,33.5c1.29,6.65-4.7,12.7-12.6,12.7H45.71C38,46.2,32.08,40.44,33,33.94l.71-4.81Z"/><path class="cls-3" d="M67,30a5.33,5.33,0,0,1-4,1.74,5.77,5.77,0,0,1-1.6-.22.64.64,0,0,0-.2,0,.62.62,0,0,0-.66.58V35a1.37,1.37,0,0,1-1.45,1.25,1.55,1.55,0,0,1-1-.37,1.17,1.17,0,0,1-.43-.88V33.73a1.35,1.35,0,0,0-1.44-1.24,1.49,1.49,0,0,0-1,.36,1.17,1.17,0,0,0-.43.88v3.12a2,2,0,0,1-2.18,1.87A2.4,2.4,0,0,1,51,38.17a1.73,1.73,0,0,1-.64-1.32V35.48c0-2.09-2.39-3.56-4.69-2.9h0a4,4,0,0,1-3.36-.52l-.6-.4a4,4,0,0,0-3.37-.51h0A4,4,0,0,1,34.3,30l0-.06a3.19,3.19,0,0,1,.44-4.59l.42-.36.86-.48s30,.55,30.11.44l.07,0h.11l.37.31A3.21,3.21,0,0,1,67,30Z"/><path class="cls-4" d="M66.52,23.48A2.73,2.73,0,0,1,66.08,25a3.71,3.71,0,0,1-.23.32l0,0A4.74,4.74,0,0,1,61,26.74l-1.85-.48a8,8,0,0,0-4.73.21l-3.55,1.27a8.11,8.11,0,0,1-5.56,0L43,26.78a8,8,0,0,0-2.85-.52H39a3.39,3.39,0,0,1-1.93-.6L36,24.53a3.28,3.28,0,0,1,0-3.43,2.71,2.71,0,0,1,2-1.27l3-.43h19.2l1.85.3a7.07,7.07,0,0,1,3.46,1.57,2.93,2.93,0,0,1,1.06,2.21Z"/><path class="cls-3" d="M58.87,22l-1.25.51a7.75,7.75,0,0,1-4.85.31l-.46-.12a7.78,7.78,0,0,0-4.2.08,7.67,7.67,0,0,1-4.5,0l-1.24-.38a1.89,1.89,0,0,1-1-3.15l.8-.88.78-.86.08,0,.11,0a1.4,1.4,0,0,1-.11-.53c0-1.72,3.24-3.12,7.23-3.12a12.18,12.18,0,0,1,9.25,5,3,3,0,0,1,.38.7A1.84,1.84,0,0,1,60,21,1.82,1.82,0,0,1,58.87,22Z"/><path class="cls-5" d="M54.52,18.15c0,1.4-1.7,2.5-3.88,2.5h-.36c-3.67,0-6.8-.9-8.09-2.27l.78-.85.08,0c.84,1,3.59,1.91,7.23,1.91h.36c1.5,0,2.63-.66,2.63-1.25s-1.13-1.24-2.63-1.24a4,4,0,0,0-2.17.58.63.63,0,0,1-.87-.15.65.65,0,0,1-.1-.47.62.62,0,0,1,.25-.4,5.1,5.1,0,0,1,2.89-.81C52.82,15.66,54.52,16.76,54.52,18.15Z"/><path class="cls-1" d="M126.22,1.58A1.61,1.61,0,0,1,127.81,0H138.1a11.47,11.47,0,0,1,7.07,20.52A13.17,13.17,0,0,1,141,46.2H127.74a1.55,1.55,0,0,1-1.52-1.59ZM138.1,19.73a8.25,8.25,0,1,0,0-16.5h-8.64v16.5ZM141,43A10,10,0,0,0,141,23H129.46V43Z"/><path class="cls-1" d="M226.67,27.06a10,10,0,0,0-10-10,10.14,10.14,0,0,0-10,10V44.88a1.49,1.49,0,0,1-.33.72,1.41,1.41,0,0,1-1.19.6h-.4a1.78,1.78,0,0,1-1-.86.24.24,0,0,1-.07-.2.21.21,0,0,0-.06-.13V15.51a1.55,1.55,0,1,1,3.1,0v3.1a13.11,13.11,0,0,1,23.16,8.45V44.61a1.59,1.59,0,1,1-3.17,0Z"/><path class="cls-2" d="M194.86,28.11l1.08,5.52c1.29,6.65-4.71,12.7-12.6,12.7h-10.6c-7.68,0-13.62-5.75-12.67-12.26l.7-4.8Z"/><path class="cls-3" d="M194,30.1a5.33,5.33,0,0,1-4,1.75,5.78,5.78,0,0,1-1.6-.23.68.68,0,0,0-.2,0,.62.62,0,0,0-.67.57v2.94a1.36,1.36,0,0,1-1.44,1.25,1.58,1.58,0,0,1-1-.37,1.16,1.16,0,0,1-.42-.88V33.87a1.36,1.36,0,0,0-1.44-1.25,1.48,1.48,0,0,0-1,.37,1.13,1.13,0,0,0-.42.88V37a2,2,0,0,1-2.18,1.87,2.35,2.35,0,0,1-1.54-.55,1.73,1.73,0,0,1-.64-1.32V35.61c0-2.09-2.39-3.56-4.7-2.9h0a4.06,4.06,0,0,1-3.37-.51l-.59-.4a4.06,4.06,0,0,0-3.37-.52h0a4,4,0,0,1-4-1.13l-.05-.06a3.2,3.2,0,0,1,.45-4.59l.41-.36.87-.48s30,.55,30.1.44l.07,0h.12l.36.31A3.21,3.21,0,0,1,194,30.1Z"/><path class="cls-4" d="M193.56,23.61a2.8,2.8,0,0,1-.45,1.49,2.35,2.35,0,0,1-.23.32l0,0a4.75,4.75,0,0,1-4.77,1.41l-1.85-.48a8,8,0,0,0-4.73.21L178,27.88a8.08,8.08,0,0,1-5.57-.06L170,26.91a8.18,8.18,0,0,0-2.86-.52H166a3.36,3.36,0,0,1-1.92-.6L163,24.66a3.3,3.3,0,0,1-.06-3.43A2.81,2.81,0,0,1,165,20l3-.43h19.2l1.85.3a7.11,7.11,0,0,1,3.46,1.57,3,3,0,0,1,1.06,2.21Z"/><path class="cls-3" d="M185.91,22.15l-1.26.51a7.58,7.58,0,0,1-4.84.31l-.46-.12a7.72,7.72,0,0,0-4.21.09,7.84,7.84,0,0,1-4.5,0l-1.24-.38a1.91,1.91,0,0,1-1-3.16l.81-.88.77-.86.08,0,.11-.05a1.66,1.66,0,0,1-.1-.54c0-1.72,3.23-3.12,7.23-3.12a12.19,12.19,0,0,1,9.24,5,2.8,2.8,0,0,1,.38.7,1.8,1.8,0,0,1,.05,1.49A1.83,1.83,0,0,1,185.91,22.15Z"/><path class="cls-5" d="M181.55,18.29c0,1.39-1.7,2.49-3.87,2.49h-.36c-3.67,0-6.8-.9-8.09-2.26l.77-.86.08,0c.85,1,3.59,1.9,7.24,1.9h.36c1.5,0,2.63-.66,2.63-1.24S179.18,17,177.68,17a3.93,3.93,0,0,0-2.17.58.63.63,0,0,1-.87-.15.58.58,0,0,1-.11-.46.63.63,0,0,1,.26-.41,5.18,5.18,0,0,1,2.89-.81C179.85,15.79,181.55,16.89,181.55,18.29Z"/></g></g></svg>