<svg xmlns="http://www.w3.org/2000/svg" viewBox="0 0 232.82 107.26"><defs><style>.cls-1{fill:#f8f8f8;}.cls-2{fill:#b57e59;}.cls-3{fill:#fff;}.cls-4{fill:#e2eaed;}</style></defs><g id="Layer_2" data-name="Layer 2"><g id="Layer_1-2" data-name="Layer 1"><path class="cls-1" d="M0,84.7V62a.72.72,0,0,1,.65-.75c.31,0,.61.4.61.75V78.6a11.88,11.88,0,0,1,10.63-6.8,12.35,12.35,0,0,1,0,24.68A11.93,11.93,0,0,1,1.26,89.74v6.09a.66.66,0,0,1-.61.65A.63.63,0,0,1,0,95.83Zm1.26-.61A10.94,10.94,0,0,0,11.89,95.23a11.09,11.09,0,0,0,0-22.17A10.86,10.86,0,0,0,1.26,83.64Z"/><path class="cls-1" d="M53.84,72.46V95.83a.59.59,0,0,1-.61.65.6.6,0,0,1-.65-.65V89.69A11.59,11.59,0,0,1,42.2,96.48c-6.44,0-11.63-5.59-11.63-12.34S35.76,71.8,42.2,71.8a11.68,11.68,0,0,1,10.38,6.8V72.46a.63.63,0,1,1,1.26,0ZM52.58,84.14c0-6.09-4.69-11-10.38-11s-10.37,4.94-10.37,11S36.51,95.23,42.2,95.23,52.58,90.29,52.58,84.14Z"/><path class="cls-1" d="M64.41,61.88a.63.63,0,0,1,.66-.65.65.65,0,0,1,.6.65V88L81.89,71.8a.64.64,0,0,1,.9.91L72.57,82.94,82.79,95.38a.67.67,0,0,1-.1,1,.54.54,0,0,1-.35.15.51.51,0,0,1-.5-.25L71.61,83.89l-5.79,5.8s-.1.1-.15.1v6a.65.65,0,0,1-.6.65.63.63,0,0,1-.66-.65Z"/><path class="cls-1" d="M89.59,84.14a12.23,12.23,0,0,1,12-12.34,12,12,0,0,1,11.83,11.39v.2a.69.69,0,0,1-.6.6h-22v.15a11,11,0,0,0,10.73,11.09,10.42,10.42,0,0,0,8.86-5,.69.69,0,0,1,.91-.15.62.62,0,0,1,.15.85,12,12,0,0,1-9.92,5.59A12.36,12.36,0,0,1,89.59,84.14Zm1.31-1.36h21.26a10.68,10.68,0,0,0-21.26,0Z"/><path class="cls-1" d="M120.71,92.91a.64.64,0,1,1,.86-1A14,14,0,0,0,130,95.23c4.48,0,8.16-2.62,8.16-5.85,0-3.78-3.68-4.58-7.55-5.49s-8.42-2-8.42-6.6c0-3.32,3.53-6,7.81-6a10.18,10.18,0,0,1,7.61,3,.65.65,0,0,1-.05.91.64.64,0,0,1-.91,0A9.22,9.22,0,0,0,130,72.61c-3.57,0-6.5,2.07-6.5,4.68,0,3.58,3.43,4.39,7.41,5.34s8.56,2,8.56,6.75c0,4-4.18,7.1-9.47,7.1A15.08,15.08,0,0,1,120.71,92.91Z"/><path class="cls-1" d="M165.54,81.83a8.74,8.74,0,0,0-17.48-.35V95.83a.65.65,0,0,1-.25.55.84.84,0,0,1-.25.1h-.11a.81.81,0,0,1-.45-.15.62.62,0,0,1-.2-.4V61.88a.66.66,0,0,1,.65-.65.62.62,0,0,1,.61.65V77a10,10,0,0,1,18.74,4.84v14a.66.66,0,0,1-.61.65.63.63,0,0,1-.65-.65Z"/><path class="cls-1" d="M188.15,71.8c6.44,0,11.68,5.55,11.68,12.34s-5.24,12.34-11.68,12.34-11.64-5.59-11.64-12.34S181.7,71.8,188.15,71.8Zm0,23.43c5.69,0,10.42-5,10.42-11.09s-4.73-11.08-10.42-11.08S177.77,78,177.77,84.14,182.46,95.23,188.15,95.23Z"/><path class="cls-1" d="M209.15,84.5v-12a.63.63,0,1,1,1.26,0v6.09a11.68,11.68,0,0,1,10.52-6.75,12.22,12.22,0,0,1,0,24.43,11.81,11.81,0,0,1-10.52-6.7v17.08a.63.63,0,1,1-1.26,0Zm1.26-.51a10.71,10.71,0,1,0,0-.45Z"/><path class="cls-1" d="M.09,30.59v-29A1.6,1.6,0,0,1,1.67,0,1.62,1.62,0,0,1,3.31,1.58V20.09a15.33,15.33,0,0,1,12.34-6.3c8.66,0,15.56,7.22,15.56,16.15A15.79,15.79,0,0,1,15.65,46,15.27,15.27,0,0,1,3.31,39.72v4.66A1.62,1.62,0,0,1,1.67,46,1.6,1.6,0,0,1,.09,44.38Zm3.22-.65a12.6,12.6,0,0,0,12.34,12.8A12.55,12.55,0,0,0,28,29.94C28,22.78,22.48,17,15.65,17,9,17,3.57,22.52,3.31,29.41Z"/><path class="cls-1" d="M103.69,26.92A9.91,9.91,0,0,0,93.78,17a10.09,10.09,0,0,0-10,9.92V44.64a1.41,1.41,0,0,1-.33.72,1.39,1.39,0,0,1-1.18.6H81.9a1.72,1.72,0,0,1-1.05-.86.22.22,0,0,1-.07-.19.26.26,0,0,0-.06-.14V15.43a1.54,1.54,0,1,1,3.08,0v3.08a13,13,0,0,1,23,8.41V44.38a1.58,1.58,0,1,1-3.15,0Z"/><path class="cls-2" d="M70.8,28l1.08,5.52c1.29,6.65-4.7,12.7-12.6,12.7H48.69C41,46.2,35.06,40.44,36,33.94l.71-4.81Z"/><path class="cls-3" d="M70,30a5.32,5.32,0,0,1-4,1.74,5.84,5.84,0,0,1-1.61-.22.67.67,0,0,0-.86.55V35A1.37,1.37,0,0,1,62,36.23a1.55,1.55,0,0,1-1-.37A1.17,1.17,0,0,1,60.6,35V33.73a1.34,1.34,0,0,0-1.44-1.24,1.49,1.49,0,0,0-1,.36,1.17,1.17,0,0,0-.43.88v3.12a2,2,0,0,1-2.18,1.87A2.42,2.42,0,0,1,54,38.17a1.77,1.77,0,0,1-.64-1.32V35.48c0-2.09-2.38-3.56-4.69-2.9h0a4,4,0,0,1-3.36-.52l-.6-.4a4,4,0,0,0-3.36-.51h0a4,4,0,0,1-4-1.13L37.23,30a3.19,3.19,0,0,1,.44-4.59l.42-.36.87-.48s30,.55,30.1.44l.07,0h.12l.36.31a3.19,3.19,0,0,1,1.19,2.24A3.23,3.23,0,0,1,70,30Z"/><path class="cls-4" d="M69.5,23.48A2.73,2.73,0,0,1,69.06,25a3.71,3.71,0,0,1-.23.32l0,0A4.74,4.74,0,0,1,64,26.74l-1.85-.48a8,8,0,0,0-4.73.21l-3.55,1.27a8.11,8.11,0,0,1-5.56,0L46,26.78a8,8,0,0,0-2.85-.52H42a3.41,3.41,0,0,1-1.93-.6L39,24.53a3.26,3.26,0,0,1-.06-3.43,2.71,2.71,0,0,1,2-1.27l3-.43h19.2l1.85.3a7,7,0,0,1,3.46,1.57,2.93,2.93,0,0,1,1.06,2.21Z"/><path class="cls-3" d="M61.86,22l-1.26.51a7.72,7.72,0,0,1-4.84.31l-.47-.12a7.78,7.78,0,0,0-4.2.08,7.67,7.67,0,0,1-4.5,0l-1.24-.38a1.89,1.89,0,0,1-1-3.15l.8-.88.78-.86.08,0,.11,0a1.62,1.62,0,0,1-.11-.53c0-1.72,3.24-3.12,7.23-3.12a12.18,12.18,0,0,1,9.25,5,3,3,0,0,1,.38.7,1.8,1.8,0,0,1,0,1.49A1.83,1.83,0,0,1,61.86,22Z"/><path class="cls-1" d="M57.5,18.15c0,1.4-1.7,2.5-3.88,2.5h-.36c-3.67,0-6.8-.9-8.09-2.27l.78-.85.08,0c.85,1,3.59,1.91,7.23,1.91h.36c1.51,0,2.63-.66,2.63-1.25s-1.12-1.24-2.63-1.24a3.92,3.92,0,0,0-2.16.58.64.64,0,0,1-.88-.15.65.65,0,0,1-.1-.47.66.66,0,0,1,.25-.4,5.1,5.1,0,0,1,2.89-.81C55.8,15.66,57.5,16.76,57.5,18.15Z"/><path class="cls-1" d="M126.07,30.59v-29A1.6,1.6,0,0,1,127.65,0a1.62,1.62,0,0,1,1.64,1.58V20.09a15.33,15.33,0,0,1,12.34-6.3c8.66,0,15.56,7.22,15.56,16.15a15.79,15.79,0,0,1-15.56,16,15.27,15.27,0,0,1-12.34-6.24v4.66A1.62,1.62,0,0,1,127.65,46a1.6,1.6,0,0,1-1.58-1.58Zm3.22-.65a12.35,12.35,0,1,0,24.68,0C154,22.78,148.46,17,141.63,17c-6.63,0-12.08,5.52-12.34,12.41Z"/><path class="cls-1" d="M229.67,26.92A9.91,9.91,0,0,0,219.76,17a10.09,10.09,0,0,0-10,9.92V44.64a1.41,1.41,0,0,1-.33.72,1.39,1.39,0,0,1-1.18.6h-.39a1.72,1.72,0,0,1-1-.86.22.22,0,0,1-.07-.19.26.26,0,0,0-.06-.14V15.43a1.54,1.54,0,1,1,3.08,0v3.08a13,13,0,0,1,23,8.41V44.38a1.58,1.58,0,1,1-3.15,0Z"/><path class="cls-2" d="M197.84,28.05l1.08,5.51c1.29,6.65-4.71,12.7-12.6,12.7h-10.6c-7.68,0-13.62-5.75-12.67-12.26l.7-4.8Z"/><path class="cls-3" d="M197,30a5.36,5.36,0,0,1-4,1.74,6.17,6.17,0,0,1-1.6-.22.64.64,0,0,0-.2,0,.63.63,0,0,0-.67.57v2.95a1.35,1.35,0,0,1-1.44,1.24,1.5,1.5,0,0,1-1-.37,1.12,1.12,0,0,1-.42-.87V33.8a1.36,1.36,0,0,0-1.44-1.25,1.6,1.6,0,0,0-1,.37,1.19,1.19,0,0,0-.42.88v3.11a2,2,0,0,1-2.18,1.87,2.34,2.34,0,0,1-1.54-.54,1.76,1.76,0,0,1-.64-1.33V35.54c0-2.08-2.39-3.55-4.69-2.89h0a4.06,4.06,0,0,1-3.37-.52l-.59-.4a4.06,4.06,0,0,0-3.37-.52h0a4,4,0,0,1-4.06-1.12l-.05-.07a3.22,3.22,0,0,1-.75-2.38,3.19,3.19,0,0,1,1.2-2.2l.41-.36.87-.48s30,.54,30.1.43l.07,0h.12l.36.31A3.21,3.21,0,0,1,197,30Z"/><path class="cls-4" d="M196.54,23.55a2.71,2.71,0,0,1-.45,1.48,2.19,2.19,0,0,1-.23.33l0,0a4.73,4.73,0,0,1-4.77,1.41l-1.85-.48a8.12,8.12,0,0,0-4.73.21l-3.55,1.28a8.08,8.08,0,0,1-5.57-.06L173,26.84a8.18,8.18,0,0,0-2.86-.52H169a3.22,3.22,0,0,1-1.92-.6L166,24.6a3.3,3.3,0,0,1-.06-3.43,2.75,2.75,0,0,1,2-1.27l3-.43h19.2l1.85.3a7,7,0,0,1,3.46,1.57,2.9,2.9,0,0,1,1.06,2.21Z"/><path class="cls-3" d="M188.89,22.08l-1.26.52a7.72,7.72,0,0,1-4.84.31l-.46-.12a7.82,7.82,0,0,0-4.21.08,7.67,7.67,0,0,1-4.5,0l-1.24-.38a1.9,1.9,0,0,1-1-3.15l.8-.89.77-.85.08,0,.12,0a1.41,1.41,0,0,1-.11-.54c0-1.72,3.23-3.11,7.23-3.11a12.2,12.2,0,0,1,9.25,5,3.72,3.72,0,0,1,.38.71,1.84,1.84,0,0,1,0,1.49A1.79,1.79,0,0,1,188.89,22.08Z"/><path class="cls-1" d="M184.54,18.22c0,1.4-1.71,2.49-3.88,2.49h-.36c-3.67,0-6.8-.89-8.09-2.26l.77-.85.08,0c.85,1,3.59,1.91,7.24,1.91h.36c1.5,0,2.63-.66,2.63-1.25S182.16,17,180.66,17a4,4,0,0,0-2.17.58.62.62,0,0,1-.87-.15.63.63,0,0,1-.11-.46.61.61,0,0,1,.26-.4,5,5,0,0,1,2.89-.81C182.83,15.73,184.54,16.82,184.54,18.22Z"/></g></g></svg>