<svg xmlns="http://www.w3.org/2000/svg" width="547.11" height="208.69" viewBox="0 0 547.11 208.69"><path d="M0,.39H24.8v208.3H0Z" fill="aqua"/><path d="M155.12,74.78v77.15a43.59,43.59,0,0,1-2.48,15.56A28.47,28.47,0,0,1,146,178a24.75,24.75,0,0,1-9.5,5.78c-3.58,1.2-10.61,1.79-14.46,1.79s-10.89-.59-14.47-1.79a24.75,24.75,0,0,1-9.5-5.78,28.47,28.47,0,0,1-6.62-10.48A43.59,43.59,0,0,1,89,151.93V74.78H64.2v84q0,12.94,3.85,22.45a43.21,43.21,0,0,0,10.33,15.57,41,41,0,0,0,15,8.95c5.69,1.93,22.22,2.9,28.66,2.9s23-1,28.65-2.9a41,41,0,0,0,15-8.95,43.21,43.21,0,0,0,10.33-15.57q3.85-9.5,3.85-22.45v-84Z" fill="aqua"/><path d="M286.82,107.57a38.16,38.16,0,0,0-10.88-9.23q-6.48-3.72-15.85-3.72a30.17,30.17,0,0,0-15.29,3.72q-6.48,3.72-6.47,10.88a12.42,12.42,0,0,0,3.72,9.37,29.31,29.31,0,0,0,8.81,5.79,51.43,51.43,0,0,0,10.89,3.3c3.85.74,7.16,1.38,9.91,1.93a114.91,114.91,0,0,1,15,4.69,41.6,41.6,0,0,1,12.12,7.16,31.12,31.12,0,0,1,8,10.74,37.18,37.18,0,0,1,2.89,15.43q0,11-4.69,18.88a39.43,39.43,0,0,1-12.12,12.81,50.79,50.79,0,0,1-16.94,7.16,84.57,84.57,0,0,1-19.15,2.21q-16.26,0-28.52-5t-21.91-18.19l18.74-15.43a77,77,0,0,0,13.5,10.75q7.44,4.68,18.19,4.68a48.53,48.53,0,0,0,9.5-1,29.21,29.21,0,0,0,8.54-3,18.75,18.75,0,0,0,6.06-5.24,11.93,11.93,0,0,0,2.35-7.3,12.58,12.58,0,0,0-3.45-9.09,24.92,24.92,0,0,0-8.26-5.65,60.55,60.55,0,0,0-10.2-3.31q-5.37-1.23-9.5-2.06-8-1.93-15.16-4.41A46.12,46.12,0,0,1,224,137.88a30.55,30.55,0,0,1-8.82-10.47q-3.3-6.34-3.3-15.71a35.57,35.57,0,0,1,4.27-17.77,38,38,0,0,1,11.29-12.54,51.21,51.21,0,0,1,16-7.43,67.2,67.2,0,0,1,43.4,2.47A40.19,40.19,0,0,1,306.11,93Z" fill="aqua"/><path d="M341.65,78.09h24.79v130.6H341.65Z" fill="aqua"/><path d="M511.91.39V87.3a68.61,68.61,0,1,0,0,105.57v15.82h24.8V.39Zm-43.8,186.55A46.86,46.86,0,1,1,515,140.08,46.86,46.86,0,0,1,468.11,186.94Z" fill="aqua"/><path d="M10.4.39H35.19v208.3H10.4Z" fill="red"/><path d="M165.51,74.78v77.15A43.37,43.37,0,0,1,163,167.49,28.33,28.33,0,0,1,156.42,178a24.75,24.75,0,0,1-9.5,5.78c-3.59,1.2-10.61,1.79-14.47,1.79S121.57,185,118,183.75a24.86,24.86,0,0,1-9.51-5.78,28.45,28.45,0,0,1-6.61-10.48,43.59,43.59,0,0,1-2.48-15.56V74.78H74.59v84q0,12.94,3.86,22.45a43.08,43.08,0,0,0,10.33,15.57,40.84,40.84,0,0,0,15,8.95c5.69,1.93,22.22,2.9,28.65,2.9s23-1,28.66-2.9a40.88,40.88,0,0,0,15-8.95,43.08,43.08,0,0,0,10.33-15.57q3.87-9.5,3.86-22.45v-84Z" fill="red"/><path d="M297.22,107.57a38.07,38.07,0,0,0-10.89-9.23q-6.46-3.72-15.84-3.72a30.15,30.15,0,0,0-15.29,3.72q-6.48,3.72-6.48,10.88a12.42,12.42,0,0,0,3.72,9.37,29.35,29.35,0,0,0,8.82,5.79,51.52,51.52,0,0,0,10.88,3.3q5.79,1.11,9.92,1.93a114.91,114.91,0,0,1,15,4.69,41.6,41.6,0,0,1,12.12,7.16,31.1,31.1,0,0,1,8,10.74,37,37,0,0,1,2.89,15.43q0,11-4.68,18.88a39.43,39.43,0,0,1-12.12,12.81,50.75,50.75,0,0,1-16.95,7.16,84.44,84.44,0,0,1-19.15,2.21q-16.26,0-28.51-5t-21.91-18.19l18.74-15.43A77,77,0,0,0,249,180.86q7.44,4.68,18.18,4.68a48.7,48.7,0,0,0,9.51-1,29.21,29.21,0,0,0,8.54-3,18.75,18.75,0,0,0,6.06-5.24,11.93,11.93,0,0,0,2.34-7.3,12.61,12.61,0,0,0-3.44-9.09,25,25,0,0,0-8.27-5.65A60.14,60.14,0,0,0,271.73,151q-5.37-1.23-9.51-2.06-8-1.93-15.15-4.41a46,46,0,0,1-12.67-6.61,30.44,30.44,0,0,1-8.82-10.47q-3.32-6.34-3.31-15.71a35.57,35.57,0,0,1,4.27-17.77,38.1,38.1,0,0,1,11.3-12.54,51.11,51.11,0,0,1,16-7.43,67.2,67.2,0,0,1,43.4,2.47A40.12,40.12,0,0,1,316.5,93Z" fill="red"/><path d="M352,78.09h24.8v130.6H352Z" fill="red"/><path d="M522.31.39V87.3a68.61,68.61,0,1,0,0,105.57v15.82h24.8V.39ZM478.5,186.94a46.86,46.86,0,1,1,46.86-46.86A46.86,46.86,0,0,1,478.5,186.94Z" fill="red"/><path d="M5.2.39H30v208.3H5.2Z" fill="#191d26"/><path d="M160.32,74.78v77.15a43.59,43.59,0,0,1-2.48,15.56A28.47,28.47,0,0,1,151.22,178a24.75,24.75,0,0,1-9.5,5.78c-3.58,1.2-10.61,1.79-14.47,1.79s-10.88-.59-14.46-1.79a24.86,24.86,0,0,1-9.51-5.78,28.45,28.45,0,0,1-6.61-10.48,43.59,43.59,0,0,1-2.48-15.56V74.78H69.39v84q0,12.94,3.86,22.45a43.21,43.21,0,0,0,10.33,15.57,40.92,40.92,0,0,0,15,8.95c5.69,1.93,22.22,2.9,28.65,2.9s23-1,28.66-2.9a40.88,40.88,0,0,0,15-8.95,43.1,43.1,0,0,0,10.34-15.57q3.86-9.5,3.85-22.45v-84Z" fill="#191d26"/><path d="M292,107.57a38.16,38.16,0,0,0-10.88-9.23q-6.48-3.72-15.85-3.72A30.15,30.15,0,0,0,250,98.34q-6.48,3.72-6.48,10.88a12.43,12.43,0,0,0,3.73,9.37,29.31,29.31,0,0,0,8.81,5.79,51.43,51.43,0,0,0,10.89,3.3c3.85.74,7.16,1.38,9.91,1.93a114.91,114.91,0,0,1,15,4.69A41.6,41.6,0,0,1,304,141.46a31.1,31.1,0,0,1,8,10.74,37,37,0,0,1,2.9,15.43q0,11-4.69,18.88a39.43,39.43,0,0,1-12.12,12.81,50.79,50.79,0,0,1-16.94,7.16A84.57,84.57,0,0,1,262,208.69q-16.28,0-28.52-5t-21.91-18.19l18.74-15.43a77,77,0,0,0,13.5,10.75q7.44,4.68,18.19,4.68a48.53,48.53,0,0,0,9.5-1,29.21,29.21,0,0,0,8.54-3,18.75,18.75,0,0,0,6.06-5.24,11.93,11.93,0,0,0,2.35-7.3,12.58,12.58,0,0,0-3.45-9.09,25,25,0,0,0-8.26-5.65,60.55,60.55,0,0,0-10.2-3.31q-5.37-1.23-9.5-2.06-8-1.93-15.16-4.41a46,46,0,0,1-12.67-6.61,30.44,30.44,0,0,1-8.82-10.47q-3.3-6.34-3.31-15.71a35.58,35.58,0,0,1,4.28-17.77,38,38,0,0,1,11.29-12.54,51.21,51.21,0,0,1,16-7.43A67.2,67.2,0,0,1,292,76.43,40.12,40.12,0,0,1,311.3,93Z" fill="#191d26"/><path d="M346.84,78.09h24.8v130.6h-24.8Z" fill="#191d26"/><path d="M517.11.39V87.3a68.61,68.61,0,1,0,0,105.57v15.82h24.8V.39Zm-43.8,186.55a46.86,46.86,0,1,1,46.85-46.86A46.86,46.86,0,0,1,473.31,186.94Z" fill="#191d26"/><path d="M409.69,31.87A100.45,100.45,0,0,0,394.78,16,77.23,77.23,0,0,0,378.49,5.08a43.58,43.58,0,0,0-40.84,0A77.23,77.23,0,0,0,321.36,16a100.45,100.45,0,0,0-14.91,15.85l-1.15,1.59L306.48,35A98.44,98.44,0,0,0,321.4,50.18a77.32,77.32,0,0,0,16.29,10.46,45.33,45.33,0,0,0,40.76,0,77.52,77.52,0,0,0,16.28-10.46A98.8,98.8,0,0,0,409.66,35l1.18-1.56ZM324.88,46.14A98.64,98.64,0,0,1,312,33.39a97.09,97.09,0,0,1,20.34-19.07A31.27,31.27,0,0,0,334,52.66,78.27,78.27,0,0,1,324.88,46.14Zm33,12.26a26,26,0,1,1,26-26A26,26,0,0,1,357.91,58.4Zm33.35-12.26a77.09,77.09,0,0,1-9.81,6.9,31.27,31.27,0,0,0,1.73-39.15,79.9,79.9,0,0,1,8,6.09,102,102,0,0,1,12.93,13.4A98.57,98.57,0,0,1,391.26,46.14Z" fill="aqua"/><path d="M373.87,25.66a5.55,5.55,0,0,1-5.15,3.5,4.9,4.9,0,0,1-.77-.08c-.14,0-.26.08-.4.08a5.56,5.56,0,1,1,0-11.11h.34a17.82,17.82,0,1,0,6,7.6Z" fill="aqua"/><path d="M412,31.87A100.45,100.45,0,0,0,397.12,16,77.23,77.23,0,0,0,380.83,5.08a43.58,43.58,0,0,0-40.84,0A77.23,77.23,0,0,0,323.7,16a101.39,101.39,0,0,0-14.92,15.85l-1.14,1.59L308.82,35a98.44,98.44,0,0,0,14.92,15.16A77.32,77.32,0,0,0,340,60.64a45.33,45.33,0,0,0,40.76,0,77.52,77.52,0,0,0,16.28-10.46A98.8,98.8,0,0,0,412,35l1.18-1.56ZM327.21,46.14a99.05,99.05,0,0,1-12.88-12.75,97.09,97.09,0,0,1,20.34-19.07,31.27,31.27,0,0,0,1.71,38.34A79.2,79.2,0,0,1,327.21,46.14Zm33,12.26a26,26,0,1,1,26-26A26,26,0,0,1,360.25,58.4ZM393.6,46.14a77.09,77.09,0,0,1-9.81,6.9,31.27,31.27,0,0,0,1.73-39.15,81,81,0,0,1,8,6.09,102.64,102.64,0,0,1,12.93,13.4A98.57,98.57,0,0,1,393.6,46.14Z" fill="red"/><path d="M374,21.8a5.42,5.42,0,0,1,.33,1.8A5.55,5.55,0,0,1,369.84,29a5.19,5.19,0,0,1-1.12.12,5.56,5.56,0,0,1-1.12-11,5.19,5.19,0,0,1,1.12-.12,5.6,5.6,0,0,1,1.83.34A17.86,17.86,0,1,0,374,21.8Z" fill="red"/><path d="M410.86,31.87A100.45,100.45,0,0,0,396,16,77.23,77.23,0,0,0,379.66,5.08a43.58,43.58,0,0,0-40.84,0A77.23,77.23,0,0,0,322.53,16a101.39,101.39,0,0,0-14.92,15.85l-1.14,1.59L307.65,35a98.44,98.44,0,0,0,14.92,15.16,77.32,77.32,0,0,0,16.29,10.46,45.33,45.33,0,0,0,40.76,0A77.52,77.52,0,0,0,395.9,50.18,98.8,98.8,0,0,0,410.83,35L412,33.46ZM326.05,46.14a98.64,98.64,0,0,1-12.89-12.75A97.09,97.09,0,0,1,333.5,14.32a31.27,31.27,0,0,0,1.71,38.34A78.27,78.27,0,0,1,326.05,46.14Zm33,12.26a26,26,0,1,1,26-26A26,26,0,0,1,359.08,58.4Zm33.35-12.26a77.09,77.09,0,0,1-9.81,6.9,31.27,31.27,0,0,0,1.73-39.15,81,81,0,0,1,8,6.09,102.64,102.64,0,0,1,12.93,13.4A98.57,98.57,0,0,1,392.43,46.14Z" fill="#191d26"/><path d="M368.72,29.16a5.56,5.56,0,1,1,0-11.11h.34a17.64,17.64,0,1,0,5.2,5.91A5.56,5.56,0,0,1,368.72,29.16Z" fill="#191d26"/></svg>