<svg xmlns="http://www.w3.org/2000/svg" width="536.71" height="208.69" viewBox="0 0 536.71 208.69"><path d="M0,.39H24.8v208.3H0Z" fill="#191d26"/><path d="M155.12,74.78v77.15a43.59,43.59,0,0,1-2.48,15.56A28.47,28.47,0,0,1,146,178a24.75,24.75,0,0,1-9.5,5.78c-3.58,1.2-10.61,1.79-14.46,1.79s-10.89-.59-14.47-1.79a24.75,24.75,0,0,1-9.5-5.78,28.47,28.47,0,0,1-6.62-10.48A43.59,43.59,0,0,1,89,151.93V74.78H64.2v84q0,12.94,3.85,22.45a43.21,43.21,0,0,0,10.33,15.57,41,41,0,0,0,15,8.95c5.69,1.93,22.22,2.9,28.66,2.9s23-1,28.65-2.9a41,41,0,0,0,15-8.95,43.21,43.21,0,0,0,10.33-15.57q3.85-9.5,3.85-22.45v-84Z" fill="#191d26"/><path d="M286.82,107.57a38.16,38.16,0,0,0-10.88-9.23q-6.48-3.72-15.85-3.72a30.17,30.17,0,0,0-15.29,3.72q-6.48,3.72-6.47,10.88a12.42,12.42,0,0,0,3.72,9.37,29.31,29.31,0,0,0,8.81,5.79,51.43,51.43,0,0,0,10.89,3.3c3.85.74,7.16,1.38,9.91,1.93a114.91,114.91,0,0,1,15,4.69,41.38,41.38,0,0,1,12.12,7.16,31.12,31.12,0,0,1,8,10.74,37.18,37.18,0,0,1,2.89,15.43q0,11-4.69,18.88a39.52,39.52,0,0,1-12.12,12.81,51.2,51.2,0,0,1-16.94,7.16,84.57,84.57,0,0,1-19.15,2.21q-16.26,0-28.52-5t-21.91-18.19l18.74-15.43a77,77,0,0,0,13.5,10.75q7.44,4.68,18.19,4.68a48.53,48.53,0,0,0,9.5-1,29.21,29.21,0,0,0,8.54-3,18.75,18.75,0,0,0,6.06-5.24,12,12,0,0,0,2.35-7.3,12.58,12.58,0,0,0-3.45-9.09,24.92,24.92,0,0,0-8.26-5.65,60.55,60.55,0,0,0-10.2-3.31q-5.37-1.23-9.5-2.06-8-1.93-15.16-4.41A46.14,46.14,0,0,1,224,137.87a30.42,30.42,0,0,1-8.82-10.46q-3.3-6.34-3.3-15.71a35.57,35.57,0,0,1,4.27-17.77,38,38,0,0,1,11.29-12.54,51.46,51.46,0,0,1,16-7.44,67.48,67.48,0,0,1,18.05-2.47,66.45,66.45,0,0,1,25.35,5A40.19,40.19,0,0,1,306.11,93Z" fill="#191d26"/><path d="M511.91.39v86.9a68.61,68.61,0,1,0,0,105.58v15.82h24.8V.39Zm-43.8,186.55A46.86,46.86,0,1,1,515,140.08,46.86,46.86,0,0,1,468.11,186.94Z" fill="#191d26"/><path d="M341.64,78.09h24.8v130.6h-24.8Z" fill="#191d26"/><path d="M405.84,32a101.84,101.84,0,0,0-15-15.89,77.47,77.47,0,0,0-16.35-11,43.77,43.77,0,0,0-41,0,77.47,77.47,0,0,0-16.35,11,101.26,101.26,0,0,0-15,15.89l-1.15,1.6,1.18,1.57a98.93,98.93,0,0,0,15,15.21A77.53,77.53,0,0,0,333.6,60.84a45.43,45.43,0,0,0,40.89,0,77.78,77.78,0,0,0,16.34-10.49,99.49,99.49,0,0,0,15-15.21L407,33.57ZM320.74,46.3a99.83,99.83,0,0,1-12.93-12.8,97.54,97.54,0,0,1,20.41-19.13,31.37,31.37,0,0,0,1.71,38.46A79.5,79.5,0,0,1,320.74,46.3Zm33.15,12.29A26.09,26.09,0,1,1,380,32.5,26.12,26.12,0,0,1,353.89,58.59ZM387.35,46.3a79.32,79.32,0,0,1-9.84,6.92,31.38,31.38,0,0,0,1.73-39.28,81.61,81.61,0,0,1,8.07,6.11,101.24,101.24,0,0,1,13,13.45A99.83,99.83,0,0,1,387.35,46.3Z" fill="#191d26"/><path d="M363.55,29.26a5.58,5.58,0,0,1,0-11.15h.35a17.73,17.73,0,1,0,5.21,5.93A5.57,5.57,0,0,1,363.55,29.26Z" fill="#191d26"/></svg>