<?xml version="1.0" encoding="utf-8"?>
<!-- Generator: Adobe Illustrator 25.0.1, SVG Export Plug-In . SVG Version: 6.00 Build 0)  -->
<svg version="1.1" id="Layer_1" xmlns="http://www.w3.org/2000/svg" xmlns:xlink="http://www.w3.org/1999/xlink" x="0px" y="0px"
	 viewBox="0 0 414.9 257.4" style="enable-background:new 0 0 414.9 257.4;" xml:space="preserve">
<g id="Layer_2_1_">
	<g id="Layer_1-2">
		<path d="M410.4,125.3c-0.9-1.3-22.9-31.6-58.6-62.3c-21.1-18.1-42.7-32.6-64-43C260.5,6.7,233.5,0,207.4,0s-53.1,6.7-80.3,20
			c-21.4,10.4-42.9,24.9-64,43C27.4,93.7,5.4,124,4.5,125.3L0,131.5l4.6,6.1c0.9,1.2,22.9,30.2,58.7,59.6
			c21.1,17.3,42.6,31.2,64,41.1c27.1,12.6,54.1,19,80.1,19s53-6.4,80.1-19c21.4-10,42.9-23.8,64-41.1c35.7-29.3,57.7-58.4,58.7-59.6
			l4.6-6.1L410.4,125.3z M77,181.4c-18.4-15.1-35.4-31.9-50.7-50.2c11.1-13.9,40.5-48.2,80-74.9C73.8,102.2,76.6,164.2,113,207
			C100.4,199.3,88.4,190.8,77,181.4z M206.9,229.6c-56.5,0-102.3-45.7-102.3-102.1S150.2,25.1,206.7,25.1
			C263.1,25,309,70.8,309,127.2v0.1C308.9,183.7,263.2,229.5,206.9,229.6L206.9,229.6z M337.9,181.4c-12.1,10-25,19.1-38.6,27.1
			c38.1-43.3,40.9-107.4,6.8-153.9c11,7.3,21.6,15.3,31.6,23.9c18.5,16,35.5,33.6,50.8,52.7C373.2,149.5,356.3,166.3,337.9,181.4z"
			/>
		<path d="M244.7,114.6c-12.1,0-21.8-9.8-21.8-21.8S232.7,71,244.7,71c0.4,0,0.9,0,1.4,0c-31.1-22.5-74.5-15.5-97,15.6
			s-15.5,74.5,15.6,97s74.5,15.5,97-15.6c15.6-21.6,17.5-50.3,4.8-73.8C265.7,105.7,256.2,114.6,244.7,114.6z"/>
	</g>
</g>
</svg>
