<?xml version="1.0" encoding="utf-8"?>
<!-- Generator: Adobe Illustrator 25.0.1, SVG Export Plug-In . SVG Version: 6.00 Build 0)  -->
<svg version="1.1" id="Layer_1" xmlns="http://www.w3.org/2000/svg" xmlns:xlink="http://www.w3.org/1999/xlink" x="0px" y="0px"
	 viewBox="0 0 536.7 208.7" style="enable-background:new 0 0 536.7 208.7;" xml:space="preserve">
<style type="text/css">
	.st0{fill:#FFFFFF;}
</style>
<path class="st0" d="M0,0.4h24.8v208.3H0V0.4z"/>
<path class="st0" d="M155.1,74.8v77.1c0.1,5.3-0.7,10.6-2.5,15.6c-1.4,3.9-3.7,7.5-6.6,10.5c-2.7,2.6-5.9,4.6-9.5,5.8
	c-3.6,1.2-10.6,1.8-14.5,1.8s-10.9-0.6-14.5-1.8c-3.6-1.2-6.8-3.2-9.5-5.8c-2.9-3-5.2-6.5-6.6-10.5c-1.8-5-2.6-10.3-2.4-15.6V74.8
	H64.2v84c0,8.6,1.3,16.1,3.8,22.4c2.3,5.9,5.8,11.2,10.3,15.6c4.3,4,9.4,7.1,15,8.9c5.7,1.9,22.2,2.9,28.7,2.9c6.4,0,23-1,28.6-2.9
	c5.6-1.9,10.7-4.9,15-8.9c4.5-4.4,8.1-9.7,10.3-15.6c2.6-6.3,3.9-13.8,3.9-22.4v-84L155.1,74.8z"/>
<path class="st0" d="M286.8,107.6c-3-3.7-6.7-6.9-10.9-9.2c-4.3-2.5-9.6-3.7-15.9-3.7c-5.3-0.1-10.6,1.1-15.3,3.7
	c-4.3,2.5-6.5,6.1-6.5,10.9c-0.1,3.5,1.2,6.9,3.7,9.4c2.6,2.4,5.5,4.4,8.8,5.8c3.5,1.5,7.1,2.6,10.9,3.3c3.9,0.7,7.2,1.4,9.9,1.9
	c5.1,1.2,10.1,2.8,15,4.7c4.4,1.7,8.5,4.1,12.1,7.2c3.4,3,6.1,6.6,8,10.7c2.1,4.9,3,10.1,2.9,15.4c0,7.3-1.6,13.6-4.7,18.9
	c-3,5.1-7.2,9.5-12.1,12.8c-5.2,3.4-10.9,5.8-16.9,7.2c-6.3,1.5-12.7,2.2-19.1,2.2c-10.8,0-20.3-1.7-28.5-5
	c-8.2-3.3-15.5-9.4-21.9-18.2l18.7-15.4c4.1,4.1,8.6,7.7,13.5,10.8c5,3.1,11,4.7,18.2,4.7c3.2,0,6.4-0.4,9.5-1c3-0.6,5.9-1.6,8.5-3
	c2.4-1.3,4.4-3.1,6.1-5.2c1.6-2.1,2.4-4.7,2.4-7.3c0.1-3.4-1.1-6.6-3.5-9.1c-2.3-2.4-5.2-4.3-8.3-5.6c-3.3-1.4-6.7-2.5-10.2-3.3
	c-3.6-0.8-6.7-1.5-9.5-2.1c-5.3-1.3-10.4-2.8-15.2-4.4c-4.5-1.5-8.8-3.7-12.6-6.6c-3.7-2.8-6.7-6.3-8.8-10.5
	c-2.2-4.2-3.3-9.5-3.3-15.7c-0.1-6.2,1.3-12.3,4.3-17.8c2.8-5,6.6-9.3,11.3-12.5c4.9-3.4,10.3-5.9,16-7.4c5.9-1.6,11.9-2.5,18.1-2.5
	c8.7,0,17.3,1.7,25.4,5c8,3.3,14.8,9.1,19.3,16.5L286.8,107.6z"/>
<path class="st0" d="M511.9,0.4v86.9c-29.2-24.2-72.4-20.2-96.6,9c-24.2,29.2-20.2,72.4,9,96.6c25.4,21.1,62.2,21.1,87.6,0v15.8
	h24.8V0.4H511.9z M468.1,186.9c-25.9,0-46.8-21-46.8-46.9c0-25.9,21-46.8,46.9-46.8c25.9,0,46.8,21,46.8,46.9
	C515,166,494,186.9,468.1,186.9C468.1,186.9,468.1,186.9,468.1,186.9L468.1,186.9z"/>
<path class="st0" d="M341.6,78.1h24.8v130.6h-24.8V78.1z"/>
<path class="st0" d="M405.8,32c-4.4-5.8-9.4-11.1-15-15.9c-5-4.3-10.5-8-16.4-11c-12.8-6.8-28.2-6.8-41,0c-5.9,3-11.4,6.7-16.4,11
	c-5.6,4.7-10.6,10.1-15,15.9l-1.1,1.6l1.2,1.6c4.4,5.6,9.5,10.7,15,15.2c5,4.2,10.5,7.7,16.4,10.5c12.9,6.5,28,6.5,40.9,0
	c5.9-2.8,11.4-6.3,16.3-10.5c5.5-4.5,10.6-9.6,15-15.2l1.2-1.6L405.8,32z M320.7,46.3c-4.7-3.9-9-8.1-12.9-12.8
	c5.8-7.3,12.7-13.8,20.4-19.1c-8.3,11.7-7.6,27.5,1.7,38.5C326.7,50.9,323.6,48.7,320.7,46.3z M353.9,58.6
	c-14.4,0-26.1-11.7-26.1-26.1s11.7-26.1,26.1-26.1c14.4,0,26.1,11.7,26.1,26.1C380,46.9,368.3,58.6,353.9,58.6L353.9,58.6z
	 M387.4,46.3c-3.1,2.6-6.4,4.9-9.8,6.9c9.7-11.1,10.4-27.4,1.7-39.3c2.8,1.9,5.5,3.9,8.1,6.1c4.7,4.1,9.1,8.6,13,13.5
	C396.4,38.2,392.1,42.4,387.4,46.3z"/>
<path class="st0" d="M363.5,29.3c-3.1-0.1-5.5-2.7-5.3-5.8c0.1-2.9,2.4-5.2,5.3-5.3h0.4c-7.9-5.7-19-3.9-24.8,4s-3.9,19,4,24.8
	s19,3.9,24.8-4c4-5.5,4.5-12.8,1.2-18.8C368.9,27,366.5,29.3,363.5,29.3z"/>
</svg>
