<svg xmlns="http://www.w3.org/2000/svg" viewBox="0 0 414.85 257.4"><g id="Layer_2" data-name="Layer 2"><g id="Layer_1-2" data-name="Layer 1"><path d="M410.35,125.26c-.92-1.27-22.9-31.59-58.62-62.28-21.11-18.13-42.66-32.61-64-43C260.52,6.71,233.52,0,207.42,0s-53.1,6.71-80.26,20c-21.38,10.42-42.93,24.9-64,43C27.4,93.67,5.42,124,4.5,125.26L0,131.52l4.64,6.15c.91,1.22,22.92,30.23,58.66,59.57,21.11,17.33,42.65,31.17,64,41.13,27.11,12.63,54.06,19,80.09,19s53-6.4,80.1-19c21.38-10,42.92-23.8,64-41.13,35.74-29.34,57.74-58.35,58.66-59.57l4.64-6.15ZM77,181.38A387.85,387.85,0,0,1,26.3,131.23c11.08-13.91,40.45-48.24,80-74.94A122.93,122.93,0,0,0,113,207,310.6,310.6,0,0,1,77,181.38Zm129.86,48.17A102.23,102.23,0,1,1,309,127.32,102.35,102.35,0,0,1,206.81,229.55ZM337.9,181.38a307.23,307.23,0,0,1-38.56,27.12,122.9,122.9,0,0,0,6.8-153.89,316.06,316.06,0,0,1,31.6,23.94,397.4,397.4,0,0,1,50.81,52.68A388.49,388.49,0,0,1,337.9,181.38Z"/><path d="M244.68,114.61a21.84,21.84,0,0,1,0-43.68c.45,0,.91,0,1.36,0a69.49,69.49,0,1,0,20.42,23.26A21.82,21.82,0,0,1,244.68,114.61Z"/></g></g></svg>